# xmcd
#
# Track frame offsets:
#	180
#	11395
#	24816
#	37277
#	50328
#	67341
#	82165
#	93590
#	106628
#	117937
#	131286
#	143569
#	156641
#	173577
#	188333
#	199728
#
# Disc length: 2838 seconds
#
# Revision: 1
# Processed by: cddbd v1.5.2PL0 Copyright (c) Steve Scherf et al.
# Submitted via: audiograbber 1.83.01
#
DISCID=cf0b1410
DTITLE=Patsy Cline - Greatest Hits Of Patsy Cline Vol. 1
DYEAR=1900
DGENRE=
TTITLE0=Blue Moon Of Kentucky
TTITLE1=I Fall To Pieces
TTITLE2=Sweet Dreams
TTITLE3=Crazy
TTITLE4=Faded Love
TTITLE5=She's Got You
TTITLE6=Leavin' On Your Mind
TTITLE7=Walking After Midnight
TTITLE8=Blue Moon Of Kentucky
TTITLE9=I Fall To Pieces
TTITLE10=Sweet Dreams
TTITLE11=Crazy
TTITLE12=Faded Love
TTITLE13=She's Got You
TTITLE14=Leavin' On Your Mind
TTITLE15=Walking After Midnight
EXTD=
EXTT0=
EXTT1=
EXTT2=
EXTT3=
EXTT4=
EXTT5=
EXTT6=
EXTT7=
EXTT8=
EXTT9=
EXTT10=
EXTT11=
EXTT12=
EXTT13=
EXTT14=
EXTT15=
PLAYORDER=
